<svg xmlns="http://www.w3.org/2000/svg" xmlns:xlink="http://www.w3.org/1999/xlink" width="1667" height="2986.696" viewBox="0 0 1667 2986.696"><defs><filter id="a" x="0" y="0" width="1667" height="2986.696" filterUnits="userSpaceOnUse"><feOffset dy="3" input="SourceAlpha"/><feGaussianBlur stdDeviation="4.5" result="b"/><feFlood flood-opacity="0.161"/><feComposite operator="in" in2="b"/><feComposite in="SourceGraphic"/></filter></defs><g transform="matrix(1, 0, 0, 1, 0, 0)" filter="url(#a)"><path d="M1637,2959.7H3c-1.655,0-3-1.72-3-3.834V971.63H838.035a182.8,182.8,0,0,0-7.723-23.89A248.4,248.4,0,0,0,819.106,923.1a237.732,237.732,0,0,0-17.483-28.462c-16.231-22.616-35.724-40.94-57.936-54.465a185.137,185.137,0,0,0-20.024-10.565,190.168,190.168,0,0,0-22.5-8.475,203.646,203.646,0,0,0-25.1-5.948,227.752,227.752,0,0,0-27.837-2.987c-17.866-.832-32.234-2.146-43.926-4.019-10.668-1.709-19.046-3.88-25.611-6.638a41.7,41.7,0,0,1-13.706-8.841,65.159,65.159,0,0,1-8.212-10.629c-5.672-8.495-12.1-18.123-31.26-28.127C503.368,742.383,468.168,732.456,417.9,723.6c-10.911-1.923-21.464-4.284-31.366-7.017a278.82,278.82,0,0,1-27.139-8.975,243.455,243.455,0,0,1-23.484-10.62,231.74,231.74,0,0,1-20.4-11.951c-25.4-16.684-44.106-36.093-62.2-54.864-10.118-10.5-19.671-20.408-30.241-29.781-5.678-5.035-11.107-9.43-16.6-13.437a177.584,177.584,0,0,0-18.589-11.919,171.565,171.565,0,0,0-21.334-9.989,189.978,189.978,0,0,0-24.833-7.646,237.219,237.219,0,0,0-29.084-4.89,321.617,321.617,0,0,0-34.09-1.721c-11.459,0-23.748.53-36.525,1.576-13.186,1.08-27.322,2.743-42.015,4.945V3.834C0,1.72,1.346,0,3,0H1637c1.654,0,3,1.72,3,3.835V2955.861C1640,2957.975,1638.654,2959.7,1637,2959.7Z" transform="translate(13.5 10.5)" fill="#fff"/></g></svg>